<?xml version="1.0" encoding="UTF-8" standalone="no"?>
<!-- Created with Inkscape (http://www.inkscape.org/) -->

<svg
   version="1.1"
   id="svg1"
   width="544.75421"
   height="544.75421"
   viewBox="0 0 544.75421 544.75421"
   xml:space="preserve"
   xmlns="http://www.w3.org/2000/svg"
   xmlns:svg="http://www.w3.org/2000/svg"><defs
     id="defs1" /><g
     id="g1"
     transform="translate(-2.7449908,-0.09635892)"><path
       style="fill:#000000"
       d="m 171.91671,478.28392 -11.9697,-0.33433 -5.58586,-1.12512 C 116.05065,469.10789 83.754799,441.24194 71.164554,405.03964 68.894712,398.51288 67.278616,392.063 66.27382,385.5206 l -0.735334,-4.78788 -0.0095,-111.0826 -0.0095,-111.08261 0.619345,-2.49652 c 0.34064,-1.37308 0.921097,-2.9753 1.289905,-3.56049 0.368808,-0.58518 1.177109,-3.09882 1.796225,-5.58586 0.619116,-2.48703 1.355612,-5.41552 1.636658,-6.50774 7.061205,-27.44175 35.604811,-58.655467 63.302871,-69.224544 2.18413,-0.833426 4.3384,-1.699809 4.78726,-1.925296 3.51201,-1.764287 15.60971,-4.54033 24.45325,-5.611256 l 5.58586,-0.676431 108.66509,-0.05806 108.66508,-0.05807 3.85007,0.556643 c 9.42732,1.363001 14.61439,2.720249 25.38837,6.643118 12.92864,4.707393 33.34451,18.48994 40.67026,27.456081 0.56656,0.693428 2.46892,2.936535 4.22747,4.984685 5.76054,6.7092 14.24847,20.96097 17.26752,28.99326 3.5342,9.40285 5.00071,14.69955 6.3336,22.87542 l 0.91065,5.58586 -0.14679,108.25926 -0.14679,108.25926 -0.52695,5.05387 c -1.54555,14.82309 -5.68073,26.63918 -15.35942,43.88889 -17.03218,30.35536 -48.10897,49.45004 -86.20556,52.96774 l -6.64984,0.61403 -96.02356,-0.19156 c -52.81297,-0.10535 -101.40994,-0.342 -107.99327,-0.52588 z m 24.20539,-38.52098 c 10.26709,-2.49404 18.33521,-4.4442 19.6835,-4.75775 10.27114,-2.38859 17.60984,-4.23527 17.82155,-4.48453 0.14629,-0.17225 0.74478,-0.35588 1.32996,-0.40805 1.56039,-0.13913 14.84956,-3.53295 15.16162,-3.87201 0.1463,-0.15896 1.0075,-0.35929 1.91379,-0.44518 0.9063,-0.0859 5.81387,-1.23098 10.90573,-2.54465 5.09186,-1.31367 9.83359,-2.51161 10.53719,-2.6621 0.7036,-0.15048 1.72597,-0.51267 2.27194,-0.80486 0.54596,-0.2922 1.2641,-0.36351 1.59585,-0.15847 l 0.60319,0.37279 -0.40795,-0.66009 -0.40796,-0.66009 1.29431,0.16961 c 0.71187,0.0933 1.92731,-0.24514 2.70098,-0.75207 0.77367,-0.50693 1.59464,-0.91802 1.82438,-0.91354 0.22974,0.004 0.0586,0.24021 -0.38027,0.52384 -0.47948,0.30986 -0.54509,0.51894 -0.16439,0.52384 0.34847,0.004 0.78154,-0.23125 0.96237,-0.52384 0.18083,-0.29259 0.77349,-0.53199 1.31703,-0.53199 0.54353,0 1.06804,-0.20236 1.16557,-0.44968 0.0975,-0.24733 0.85572,-0.61601 1.68487,-0.8193 l 1.50754,-0.36962 -0.35515,0.57463 -0.35514,0.57463 1.50754,-0.356 c 0.82914,-0.1958 1.73496,-0.56448 2.01292,-0.8193 0.27797,-0.25482 0.9363,-0.4633 1.46297,-0.4633 0.52666,0 0.95757,-0.25471 0.95757,-0.56602 0,-0.31131 0.65834,-0.5146 1.46296,-0.45176 2.5789,0.2014 3.93254,-0.0254 3.57774,-0.59951 l -0.34197,-0.55331 1.29807,0.3258 1.29806,0.32579 0.87796,-0.87796 0.87796,-0.87795 1.46981,0.32282 1.46981,0.32283 1.05362,-0.7964 c 0.5795,-0.43801 1.71196,-0.804 2.51659,-0.81331 0.80463,-0.009 1.46296,-0.27344 1.46296,-0.58697 0,-0.31354 0.53864,-0.52643 1.19697,-0.47311 1.9686,0.15947 2.6077,0.008 2.27058,-0.5372 -0.48643,-0.78706 3.6951,-1.60544 8.10316,-1.58589 0.95092,0.004 1.72895,-0.23923 1.72895,-0.54099 0,-0.30176 0.83788,-0.54865 1.86196,-0.54865 1.02407,0 1.86195,-0.20097 1.86195,-0.44659 0,-0.24563 0.61374,-0.72623 1.36386,-1.06801 l 1.36385,-0.62142 -0.38208,0.61822 -0.38208,0.61822 0.64679,-0.39974 c 1.14969,-0.71054 3.67002,-0.89445 4.0406,-0.29484 l 0.3603,0.58297 1.00525,-1.15906 1.00525,-1.15907 1.63342,0.32668 1.63342,0.32669 -0.35906,-0.58097 -0.35906,-0.58097 1.1421,0.36248 c 1.20133,0.38129 4.31101,-0.70708 4.31101,-1.50883 0,-0.25774 0.69653,-0.32932 1.54784,-0.15905 l 1.54784,0.30957 0.27201,-0.70885 0.27201,-0.70885 2.21215,0.13358 2.21215,0.13358 0.30045,-0.78296 0.30045,-0.78296 1.4403,0.28806 c 1.74182,0.34836 3.82642,-0.12553 3.42308,-0.77816 -0.16028,-0.25933 1.18469,-0.4715 2.98882,-0.4715 h 3.28023 l -0.30322,-0.7902 -0.30323,-0.79019 1.06052,0.65719 1.06053,0.6572 0.39743,-0.63794 c 0.33672,-0.54047 2.55795,-1.03566 5.32035,-1.18609 0.38301,-0.0208 0.53261,-0.30291 0.33244,-0.62679 l -0.36395,-0.58888 1.65792,0.36414 1.65791,0.36414 1.68229,-0.83924 c 0.92527,-0.46158 2.244,-0.83924 2.93053,-0.83924 0.75488,0 1.24823,-0.31539 1.24823,-0.79798 0,-0.44332 0.47288,-0.79798 1.06398,-0.79798 0.58518,0 1.06397,0.21571 1.06397,0.47934 0,0.26363 1.61591,0.13269 3.59091,-0.29098 1.975,-0.42368 4.13933,-0.88579 4.80963,-1.02692 0.6703,-0.14113 1.07512,-0.48898 0.89958,-0.77299 -0.17553,-0.28402 -0.0852,-0.51639 0.20073,-0.51639 0.28593,0 0.95839,-0.14228 1.49436,-0.31618 l 0.97449,-0.31617 -0.79798,0.57402 -0.79798,0.57402 0.73626,0.008 c 0.69259,0.008 4.15003,-0.84248 5.91357,-1.45408 0.43889,-0.15221 1.47659,-0.32309 2.306,-0.37974 0.82941,-0.0566 1.72347,-0.44341 1.9868,-0.85947 l 0.47879,-0.75648 0.008,0.69638 0.008,0.69638 0.66498,-0.41542 c 0.36574,-0.22849 0.90438,-0.45922 1.19697,-0.51274 0.29259,-0.0535 1.25017,-0.25253 2.12795,-0.44223 0.87777,-0.18971 2.31414,-0.47549 3.19192,-0.63507 0.87777,-0.15959 1.71565,-0.45759 1.86195,-0.66223 0.14629,-0.20464 0.74478,-0.41682 1.32996,-0.47151 0.58519,-0.0547 1.54277,-0.20443 2.12795,-0.33276 0.58519,-0.12833 1.30337,-0.25531 1.59596,-0.28218 0.29259,-0.0269 0.1729,-0.28091 -0.26599,-0.56454 -0.47948,-0.30986 -0.54509,-0.51895 -0.1644,-0.52384 0.34848,-0.004 0.7617,0.19914 0.91828,0.45249 0.33914,0.54874 2.86169,0.14504 3.27527,-0.52416 0.15924,-0.25766 1.11328,-0.46847 2.12009,-0.46847 1.10156,0 2.24103,-0.41047 2.86128,-1.03072 l 1.03072,-1.03072 0.25875,0.63173 0.25874,0.63173 0.49897,-0.71042 c 0.27443,-0.39073 0.71159,-0.69283 0.97147,-0.67134 0.94433,0.0781 2.33446,-0.56468 2.33446,-1.07942 0,-0.29014 -0.27638,-0.35672 -0.61418,-0.14795 l -0.61418,0.37959 0.38495,-0.62286 c 0.21172,-0.34258 0.58619,-0.49849 0.83217,-0.34647 0.71275,0.44051 2.13919,-0.30228 2.13919,-1.11393 0,-0.40759 0.26167,-0.68122 0.58149,-0.60807 0.31982,0.0731 0.85846,-0.29997 1.19697,-0.82914 l 0.61548,-0.96213 -0.96769,-0.71932 -0.96769,-0.71932 1.1671,-0.37043 c 0.69174,-0.21955 1.32169,-0.1203 1.54664,0.24367 l 0.37953,0.6141 0.53519,-0.69016 c 0.29436,-0.37959 0.72916,-1.0264 0.96622,-1.43735 l 0.43102,-0.74718 -0.61418,0.37959 c -0.33781,0.20877 -0.61419,0.14564 -0.61419,-0.14029 0,-0.97177 0.64396,-2.20285 1.15229,-2.20285 0.27855,0 0.33752,0.29924 0.13103,0.66498 l -0.37543,0.66499 0.69388,-0.64244 0.69388,-0.64244 -0.74883,-0.92013 -0.74884,-0.92013 0.91394,0.34237 c 1.04385,0.39102 1.27607,0.12792 1.80268,-2.04239 0.5864,-2.41678 0.87485,-9.80445 0.38281,-9.80466 -0.24172,-10e-5 -0.48741,-0.87363 -0.54597,-1.94117 -0.0586,-1.06754 -0.27729,-2.32428 -0.48605,-2.79274 -0.53421,-1.19881 -0.59595,-1.47591 -0.67094,-3.0111 -0.0366,-0.74875 -0.25485,-1.24496 -0.48505,-1.10269 -0.2302,0.14227 -0.44338,-0.62163 -0.47373,-1.69756 -0.0304,-1.07593 -1.891,-9.37745 -4.13477,-18.44782 -2.24377,-9.07037 -5.36611,-21.75825 -6.93853,-28.19529 -1.57241,-6.43703 -4.52595,-18.52643 -6.56342,-26.86532 -2.03746,-8.33888 -7.34265,-30.12373 -11.7893,-48.41077 -8.06472,-33.1665 -25.50987,-104.06579 -26.68111,-108.43547 -1.4617,-5.45328 -6.43707,-10.95246 -12.462,-13.774 l -3.15475,-1.4774 -6.38384,0.0356 -6.38384,0.0356 -52.93266,13.36231 c -29.11296,7.34926 -65.27619,16.47938 -80.36273,20.28913 -15.08655,3.80976 -29.45018,7.39484 -31.9192,7.96684 -2.46901,0.572 -16.45881,4.02833 -31.08844,7.68072 -14.62963,3.65239 -30.61804,7.61693 -35.52981,8.81009 l -8.93048,2.16938 -2.91276,1.93338 c -6.81046,4.52053 -10.95457,12.48136 -10.18846,19.57206 0.16227,1.50186 2.80892,12.9049 5.88145,25.34009 3.07254,12.43518 7.28956,29.67155 9.37117,38.30303 7.92045,32.84245 9.13682,37.89859 12.47818,51.86869 1.88951,7.9 4.06612,16.99696 4.8369,20.21548 0.77079,3.21852 2.80244,11.71701 4.51479,18.88553 8.01899,33.57048 12.39481,51.78381 15.14568,63.0404 1.64458,6.72963 3.83635,15.7069 4.8706,19.94949 4.96205,20.35477 13.94421,25.31262 36.10584,19.92921 z m -9.41551,-50.91742 c 0.57475,-0.95093 3.91606,-6.51684 7.42512,-12.36869 3.50906,-5.85185 9.07927,-14.82912 12.37823,-19.94949 3.29896,-5.12037 6.80888,-10.65438 7.79983,-12.2978 l 1.80172,-2.98804 0.51195,-11.1096 c 0.28157,-6.11029 0.77476,-12.58606 1.09597,-14.3906 l 0.58402,-3.28099 1.24533,-1.16992 1.24532,-1.16992 1.76165,0.24695 c 0.96891,0.13582 2.22215,0.44468 2.78499,0.68636 l 1.02333,0.43942 -0.37624,-0.98047 c -1.61588,-4.21092 -1.62813,-14.9864 -0.0241,-21.24563 2.76635,-10.79512 21.1616,-39.58925 39.03255,-61.09774 4.8054,-5.78352 4.73692,-5.76826 6.91906,-1.54173 1.84058,3.56499 1.97571,2.78016 0.35004,-2.03295 l -1.16795,-3.45792 5.28469,-6.11784 c 9.96367,-11.53449 24.52656,-26.88738 47.43355,-50.00674 12.61086,-12.72777 24.82821,-25.11622 27.14965,-27.52987 2.32145,-2.41365 4.61546,-4.38865 5.09781,-4.38889 l 0.87701,-4.3e-4 1.35555,3.8569 c 1.74925,4.97705 1.81688,5.24876 2.48284,9.97475 l 0.56223,3.9899 -0.59231,4.97297 c -2.21906,18.63066 -15.78813,54.31141 -30.17492,79.3469 l -3.20995,5.58586 -7.36537,-0.17451 c -4.05095,-0.096 -7.24694,-0.0632 -7.10219,0.0728 0.14475,0.13601 2.17833,0.75932 4.51907,1.38513 5.7216,1.52971 7.18181,2.15792 7.18181,3.08976 0,3.15249 -20.51039,33.15838 -35.9488,52.59168 -15.64127,19.68865 -23.76664,25.15879 -39.5499,26.62569 l -3.86577,0.35928 2.44318,2.08837 2.44318,2.08837 v 2.06583 2.06583 l -1.19697,1.133 c -2.1273,2.01362 -7.36945,4.38355 -24.71999,11.17571 -0.64877,0.25397 -3.97762,4.00152 -7.39745,8.32789 -3.41982,4.32637 -7.39988,9.30249 -8.84457,11.05805 -1.4447,1.75555 -4.4474,5.46616 -6.67269,8.24579 -10.49813,13.11336 -17.59964,20.8218 -14.58047,15.8266 z m 39.76148,-48.00108 c 8.04907,-3.02966 18.84331,-7.88521 19.74543,-8.88205 l 0.96934,-1.0711 -1.42172,-1.22291 c -2.14725,-1.84699 -20.53189,-14.60692 -22.02789,-15.28854 l -1.30666,-0.59536 -0.50694,0.50694 c -0.6372,0.6372 -1.53505,11.1075 -1.71852,20.04053 l -0.13962,6.79789 0.79798,0.50878 c 1.16638,0.74368 1.73791,0.66275 5.6086,-0.79418 z m 24.16677,-34.57734 c 8.98048,-12.00484 21.73969,-29.61521 38.02456,-52.48182 3.20292,-4.49742 10.27419,-14.40138 15.71394,-22.00879 16.96258,-23.72194 31.39522,-45.18341 31.39522,-46.685 0,-0.70899 -2.97125,-3.05574 -3.86891,-3.05574 -0.15698,0 -1.02108,1.30353 -1.92022,2.89672 -6.0481,10.71664 -29.63478,44.56569 -47.79746,68.59372 -17.93508,23.72694 -29.85288,39.36397 -38.03203,49.90081 -4.47087,5.75963 -8.53279,11.15754 -9.0265,11.99536 l -0.89765,1.5233 2.49361,1.88321 2.49361,1.88321 0.73169,-0.56641 c 0.40244,-0.31153 5.213,-6.55689 10.69014,-13.87857 z m -40.15153,74.86461 c 2.20302,-2.85277 5.01996,-6.32166 6.25985,-7.70862 l 2.25436,-2.52176 13.29966,-3.40976 c 24.53167,-6.28942 32.34158,-8.25091 53.99663,-13.56142 18.7024,-4.58644 81.99692,-20.36245 104.00337,-25.92261 4.0963,-1.03497 8.4736,-2.22323 9.72735,-2.64058 2.9894,-0.99512 3.83633,-0.95722 3.84759,0.17216 0.005,0.51204 0.71203,3.31623 1.57094,6.23153 0.85891,2.91531 1.51023,5.35198 1.44737,5.41484 -0.0628,0.0628 -2.77363,0.72672 -6.02396,1.47526 -3.25033,0.74855 -25.63082,6.25642 -49.73444,12.23973 -52.70241,13.08248 -73.06796,18.10547 -94.89546,23.40519 -9.07037,2.20229 -23.79309,5.80548 -32.71717,8.0071 -8.92407,2.20162 -16.40919,4.00359 -16.63359,4.00438 -0.2244,7.9e-4 1.39447,-2.33266 3.5975,-5.18544 z m -36.66842,-37.46837 c -0.51309,-1.60345 -2.34602,-10.80488 -2.18452,-10.96639 0.2388,-0.2388 32.85611,-8.60627 33.57969,-8.61436 0.48459,-0.005 2.90326,9.63334 2.887,11.50507 -0.003,0.33318 -0.90299,0.77213 -2.00022,0.97546 -2.04832,0.37957 -29.44703,6.99301 -31.12383,7.51259 -0.5226,0.16194 -1.03244,-0.0196 -1.15812,-0.41237 z m 106.39574,-22.58262 c 1.73649,-1.72126 5.48652,-5.65656 8.33338,-8.74511 l 5.17613,-5.61554 3.60165,-0.71383 c 1.98091,-0.39261 10.54408,-2.4496 19.02926,-4.57109 15.44001,-3.86035 73.45061,-18.56188 75.64032,-19.16939 l 1.16221,-0.32245 0.53577,2.04791 c 0.29467,1.12634 1.00798,3.91859 1.58514,6.20499 l 1.04937,4.15708 -0.6194,0.18345 c -0.34067,0.10089 -26.71334,6.67995 -58.60593,14.62011 -31.89259,7.94017 -58.44973,14.57545 -59.01585,14.74505 -0.56861,0.17035 0.38383,-1.09236 2.12795,-2.82118 z M 164.19139,299.73777 c -0.48514,-2.26759 -1.08438,-4.91441 -1.33165,-5.88182 l -0.44958,-1.75893 0.63038,-0.20339 c 0.34671,-0.11186 3.38341,-0.81091 6.74822,-1.55345 7.39234,-1.63133 42.21718,-10.14724 46.18928,-11.29492 3.569,-1.03121 3.50641,-1.14846 1.9019,3.56321 -0.7422,2.17945 -1.65924,5.15961 -2.03787,6.62257 l -0.68844,2.65993 -11.64371,2.77005 c -6.40404,1.52353 -17.52321,4.21671 -24.70925,5.98485 -7.18605,1.76814 -13.21441,3.2148 -13.39637,3.2148 -0.18196,0 -0.72777,-1.8553 -1.21291,-4.1229 z M 322.73963,267.1044 c 0.2404,-0.41183 2.54903,-3.87089 5.13028,-7.68681 l 4.69318,-6.93803 11.57748,-2.84973 c 6.36762,-1.56735 16.91561,-4.25054 23.43999,-5.96264 6.52437,-1.7121 12.16904,-3.11292 12.5437,-3.11292 0.41133,0 1.27795,2.16025 2.18752,5.45286 0.82847,2.99908 1.6076,5.73751 1.7314,6.0854 l 0.22509,0.63254 -2.03942,0.34773 c -1.66463,0.28383 -54.25493,13.22267 -58.64617,14.42878 l -1.28016,0.35161 z m -168.61599,-5.40366 c -0.67569,-2.20125 -2.51978,-10.57725 -2.35473,-10.69538 0.10907,-0.0781 9.65436,-2.49467 21.21177,-5.37026 11.55741,-2.87558 27.47711,-6.86227 35.37711,-8.8593 28.29075,-7.1516 45.05355,-11.19379 45.31907,-10.92826 0.51734,0.51733 -11.30623,15.10604 -12.51651,15.44369 -0.48585,0.13555 -8.90307,2.21025 -18.70492,4.61044 -9.80185,2.4002 -28.80445,7.08651 -42.22799,10.41402 -25.9903,6.44265 -25.79174,6.40168 -26.1038,5.38505 z m -11.54524,-47.3203 -1.30154,-6.01135 0.82329,-0.3723 c 0.45281,-0.20476 4.05511,-1.12745 8.00511,-2.05042 3.95,-0.92296 14.72273,-3.54046 23.93939,-5.81664 9.21667,-2.27619 23.9394,-5.85581 32.71718,-7.95472 8.77777,-2.0989 21.82474,-5.23143 28.99326,-6.96118 16.61654,-4.00954 35.95167,-8.64182 53.19866,-12.74522 7.46111,-1.77515 13.8901,-3.34333 14.28666,-3.48484 0.39655,-0.1415 -2.13923,2.79715 -5.63506,6.53035 -3.49584,3.73319 -6.91573,7.44596 -7.59977,8.25059 -0.68404,0.80463 -1.61947,1.46013 -2.07875,1.45666 -1.05048,-0.008 -17.59187,3.94861 -55.62965,13.30607 -16.38518,4.03082 -37.45185,9.17882 -46.81481,11.43999 -23.21366,5.60613 -39.72687,9.69638 -40.75071,10.09377 l -0.85172,0.33059 z m 207.5538,1.50371 c 0,-0.17192 0.80491,-1.57405 1.7887,-3.11584 0.98378,-1.5418 2.92878,-5.01766 4.32222,-7.72414 l 2.53352,-4.92087 h 1.22525 c 0.67388,0 3.37538,-0.57542 6.00333,-1.2787 l 4.77809,-1.2787 1.44809,5.83703 c 1.66003,6.69131 1.80634,6.37166 -3.47967,7.60215 -4.79719,1.1167 -16.38559,4.26492 -17.68856,4.80544 -0.51203,0.21241 -0.93097,0.24554 -0.93097,0.0736 z"
       id="path131" /></g></svg>
